<?xml version="1.0" encoding="utf-8"?>
<!-- Generator: Adobe Illustrator 26.2.1, SVG Export Plug-In . SVG Version: 6.00 Build 0)  -->
<svg version="1.1" id="Capa_1" xmlns="http://www.w3.org/2000/svg" xmlns:xlink="http://www.w3.org/1999/xlink" x="0px" y="0px"
	 viewBox="0 0 150 150" style="enable-background:new 0 0 150 150;" xml:space="preserve">
<style type="text/css">
	.st0{fill:#BCCCAC;}
</style>
<g>
	<g>
		<g>
			<path class="st0" d="M68,75.7c0.3,0,0.7-0.1,0.9-0.4c0.2-0.2,0.4-0.6,0.4-0.9s-0.1-0.7-0.4-0.9c-0.2-0.2-0.6-0.4-0.9-0.4
				s-0.7,0.1-0.9,0.4c-0.2,0.2-0.4,0.6-0.4,0.9s0.1,0.7,0.4,0.9C67.4,75.6,67.7,75.7,68,75.7z"/>
			<path class="st0" d="M99,112.8l-7-3.3l-2.1-12.3c1.7-0.6,3.2-1.7,4.2-3.1c1.3-1.8,1.8-4.1,1.4-6.3l-5-28.7
				c-0.1-0.7-0.8-1.2-1.5-1l-14,2.4L60.9,58c-0.7-0.1-1.4,0.3-1.5,1l-5,28.7c-0.7,4.2,1.8,8.2,5.6,9.5l-2,12.3l-7,3.3
				c-0.5,0.2-0.8,0.8-0.7,1.3c0.1,0.6,0.5,1,1,1.1l13.5,2.3c0.1,0,0.1,0,0.2,0l0,0c0.7,0,1.2-0.6,1.2-1.3c0-0.4-0.2-0.7-0.4-1
				l-5.4-5.4l2.1-12.3c0.1,0,0.1,0,0.2,0c4.1,0,7.6-2.9,8.3-7l4-22.1l3.9,22.3c0.7,4.1,4.2,7,8.3,7l0,0c0.1,0,0.1,0,0.2,0l2.1,12.3
				l-5.5,5.4c-0.4,0.4-0.5,1-0.2,1.5c0.2,0.4,0.7,0.7,1.1,0.7c0.1,0,0.1,0,0.2,0l13.5-2.3c0.5-0.1,1-0.5,1-1.1
				C99.8,113.5,99.5,113,99,112.8z M61.8,60.7l11.6,2l-1,6l-11.6-2L61.8,60.7z M61.8,95c-3.2-0.6-5.4-3.6-4.8-6.8l3.3-18.9l11.6,2
				l-3.3,18.9c-0.5,2.8-2.9,4.9-5.8,4.9C62.5,95.1,62.1,95.1,61.8,95z M61.3,114.3l-5.5-1l3.1-1.5L61.3,114.3z M81.4,90.2l-3.3-18.9
				l11.6-2L93,88.2c0.3,1.6-0.1,3.1-1,4.4s-2.3,2.1-3.8,2.4c-0.3,0.1-0.7,0.1-1,0.1C84.3,95.1,81.9,93,81.4,90.2z M88.2,60.7l1,6
				l-11.6,2l-1-6L88.2,60.7z M88.7,114.3l2.4-2.4l3.1,1.5L88.7,114.3z"/>
			<path class="st0" d="M81.5,72.3c-0.3,0-0.7,0.1-0.9,0.4c-0.2,0.2-0.4,0.6-0.4,0.9s0.1,0.7,0.4,0.9c0.2,0.2,0.6,0.4,0.9,0.4
				s0.7-0.1,0.9-0.4c0.2-0.2,0.4-0.6,0.4-0.9s-0.1-0.7-0.4-0.9C82.2,72.4,81.9,72.3,81.5,72.3z"/>
			<path class="st0" d="M89.3,74.5c0.2-0.2,0.4-0.6,0.4-0.9s-0.1-0.7-0.4-0.9c-0.2-0.2-0.6-0.4-0.9-0.4s-0.7,0.1-0.9,0.4
				c-0.2,0.2-0.4,0.6-0.4,0.9s0.1,0.7,0.4,0.9c0.2,0.2,0.6,0.4,0.9,0.4S89.1,74.7,89.3,74.5z"/>
			<path class="st0" d="M85.6,77c-0.3,0-0.7,0.1-0.9,0.4c-0.2,0.2-0.4,0.6-0.4,0.9s0.1,0.7,0.4,0.9c0.2,0.2,0.6,0.4,0.9,0.4
				s0.7-0.1,0.9-0.4c0.2-0.2,0.4-0.6,0.4-0.9s-0.1-0.7-0.4-0.9C86.3,77.1,85.9,77,85.6,77z"/>
			<path class="st0" d="M61.6,76.6c-0.3,0-0.7,0.1-0.9,0.4c-0.2,0.2-0.4,0.6-0.4,0.9s0.1,0.7,0.4,0.9c0.2,0.2,0.6,0.4,0.9,0.4
				c0.3,0,0.7-0.1,0.9-0.4c0.2-0.2,0.4-0.6,0.4-0.9s-0.1-0.7-0.4-0.9C62.3,76.7,61.9,76.6,61.6,76.6z"/>
			<path class="st0" d="M67.7,80.8c0-0.3-0.1-0.7-0.4-0.9c-0.2-0.2-0.6-0.4-0.9-0.4s-0.7,0.1-0.9,0.4c-0.2,0.2-0.4,0.6-0.4,0.9
				s0.1,0.7,0.4,0.9c0.2,0.2,0.6,0.4,0.9,0.4s0.7-0.1,0.9-0.4S67.7,81.1,67.7,80.8z"/>
			<path class="st0" d="M74.6,55.2l-6.1-5.8c-0.8-0.8-1.3-1.8-1.3-2.9c0-1.1,0.4-2.2,1.2-3c1.6-1.7,4.2-1.7,5.9-0.1l0.3,0.2l0.2-0.2
				c1.6-1.6,4.3-1.6,5.9,0c0.8,0.8,1.2,1.8,1.2,3s-0.5,2.2-1.2,2.9L74.6,55.2z M71.4,43.9c-0.7,0-1.3,0.3-1.8,0.8s-0.7,1.1-0.7,1.8
				s0.3,1.3,0.8,1.7l4.9,4.7l4.8-4.7c0.5-0.5,0.7-1.1,0.7-1.8s-0.2-1.3-0.7-1.8c-1-1-2.6-1-3.5,0L74.5,46l-1.4-1.4
				C72.6,44.1,72,43.9,71.4,43.9z"/>
		</g>
	</g>
</g>
</svg>
